<svg xmlns="http://www.w3.org/2000/svg" version="1.1" xmlns:xlink="http://www.w3.org/1999/xlink" xmlns:svgjs="http://svgjs.dev/svgjs" width="1500" height="1500" viewBox="0 0 1500 1500"><rect width="1500" height="1500" fill="#ffffff"></rect><g transform="matrix(0.6666666666666666,0,0,0.6666666666666666,249.39393939393938,435.99032258064517)"><svg viewBox="0 0 396 248" data-background-color="#ffffff" preserveAspectRatio="xMidYMid meet" height="939" width="1500" xmlns="http://www.w3.org/2000/svg" xmlns:xlink="http://www.w3.org/1999/xlink"><g id="tight-bounds" transform="matrix(1,0,0,1,0.2400000000000091,0.4000000000000057)"><svg viewBox="0 0 395.52 247.2" height="247.2" width="395.52"><g><svg></svg></g><g><svg viewBox="0 0 395.52 247.2" height="247.2" width="395.52"><g transform="matrix(1,0,0,1,85.76482140845069,47.215199999999996)"><svg viewBox="0 0 223.9903571830986 152.7696" height="152.7696" width="223.9903571830986"><g><svg viewBox="0 0 223.9903571830986 152.7696" height="152.7696" width="223.9903571830986"><g><svg viewBox="0 0 223.9903571830986 152.7696" height="152.7696" width="223.9903571830986"><g><svg viewBox="0 0 223.9903571830986 152.7696" height="152.7696" width="223.9903571830986"><g id="textblocktransform"><svg viewBox="0 0 223.9903571830986 152.7696" height="152.7696" width="223.9903571830986" id="textblock"><g><svg viewBox="0 0 223.9903571830986 152.7696" height="152.7696" width="223.9903571830986"><g transform="matrix(1,0,0,1,0,0)"><svg width="223.9903571830986" viewBox="3.25 -35.5 52.05 35.5" height="152.7696" data-palette-color="#1d597d"><path d="M7.95 0L3.25 0 3.25-22.75Q3.25-28.8 6.23-32.15 9.2-35.5 14.7-35.5L14.7-35.5Q20.25-35.5 23.23-32.8 26.2-30.1 26.2-25.2L26.2-25.2Q26.2-22.05 24.7-20.05 23.2-18.05 19.6-16.9L19.6-16.9 19.6-16.7Q23.35-15.25 24.63-12.58 25.9-9.9 25.9-3.75L25.9-3.75 25.9 0 21.2 0 21.2-6.4Q21.2-10.2 19.05-12.33 16.9-14.45 12.85-14.45L12.85-14.45 10.15-14.45 10.15-18.85 13-18.85Q17.8-18.85 19.65-20.8 21.5-22.75 21.5-25.45L21.5-25.45Q21.5-28 19.68-29.55 17.85-31.1 14.85-31.1L14.85-31.1Q11.4-31.1 9.68-29.15 7.95-27.2 7.95-22.75L7.95-22.75 7.95 0ZM36.65-23.2L36.65 0 31.95 0 31.95-23Q31.95-28.9 35.12-32.2 38.3-35.5 43.55-35.5L43.55-35.5Q49.15-35.5 52.22-32.3 55.3-29.1 55.3-24.15L55.3-24.15Q55.3-21.05 54.17-18.75 53.05-16.45 51.15-15.2 49.25-13.95 47.1-13.35 44.95-12.75 42.6-12.75L42.6-12.75 38.85-12.75 38.85-17.15 43.15-17.15Q46.5-17.15 48.42-19.18 50.35-21.2 50.35-24.25L50.35-24.25Q50.35-27.25 48.57-29.18 46.8-31.1 43.5-31.1L43.5-31.1Q40.3-31.1 38.47-28.93 36.65-26.75 36.65-23.2L36.65-23.2Z" opacity="1" transform="matrix(1,0,0,1,0,0)" fill="#000000" class="wordmark-text-0" data-fill-palette-color="primary" id="text-0"></path></svg></g></svg></g></svg></g></svg></g></svg></g></svg></g></svg></g><path d="M127.454 41.215L127.454 0 374.654 0 374.654 247.2 127.454 247.2 127.454 205.985 141.231 205.985 141.231 233.423 360.877 233.423 360.877 13.777 141.231 13.777 141.231 41.215Z" fill="#000000" stroke="transparent" data-fill-palette-color="tertiary"></path></svg></g><defs></defs></svg><rect width="395.52" height="247.2" fill="none" stroke="none" visibility="hidden"></rect></g></svg></g></svg>